<svg xmlns="http://www.w3.org/2000/svg" id="Layer_1" data-name="Layer 1" viewBox="0 0 393.79 394.78"><defs><style>.cls-1{fill:#3173b9}</style></defs><path id="path5" d="M224.66 99.43Q331.21 83.13 438 68.45q.08 93.56.05 187.06c-71.12.27-142.24 1.36-213.4 1.58q-.07-78.87 0-157.66z" class="cls-1" transform="translate(-44.27 -68.45)"/><path id="path7" d="M44.27 124.59c53.48-8.25 107.19-15.37 160.9-22.09q.08 77.58.09 155.13c-53.66 0-107.33.77-161 .63V124.59z" class="cls-1" transform="translate(-44.27 -68.45)"/><path id="path29" d="M44.27 274.54c53.62-.18 107.24.68 160.86.59 0 51.86.13 103.72 0 155.59-53.57-7.94-107.24-14.89-160.9-22.15z" class="cls-1" transform="translate(-44.27 -68.45)"/><path id="path31" d="M224.34 276.62H438q.14 93.28 0 186.61c-71-10.64-142.19-20.52-213.35-30.17q-.13-78.19-.31-156.44z" class="cls-1" transform="translate(-44.27 -68.45)"/></svg>